<svg width="148" height="38" viewBox="0 0 148 38" fill="none" xmlns="http://www.w3.org/2000/svg">
<path d="M47.924 28V9.54H56.088C56.9373 9.54 57.7173 9.71333 58.428 10.06C59.156 10.4067 59.78 10.8747 60.3 11.464C60.8373 12.0533 61.2447 12.712 61.522 13.44C61.8167 14.168 61.964 14.9133 61.964 15.676C61.964 16.456 61.8253 17.21 61.548 17.938C61.288 18.6487 60.9067 19.2727 60.404 19.81C59.9013 20.3473 59.312 20.7633 58.636 21.058L62.848 28H58.896L55.1 21.812H51.512V28H47.924ZM51.512 18.666H56.01C56.4607 18.666 56.8593 18.536 57.206 18.276C57.5527 17.9987 57.83 17.6347 58.038 17.184C58.246 16.7333 58.35 16.2307 58.35 15.676C58.35 15.0867 58.2287 14.5753 57.986 14.142C57.7433 13.6913 57.4313 13.336 57.05 13.076C56.686 12.816 56.2873 12.686 55.854 12.686H51.512V18.666ZM63.7125 23.97C63.7125 23.086 63.9552 22.3147 64.4405 21.656C64.9432 20.98 65.6365 20.46 66.5205 20.096C67.4045 19.732 68.4185 19.55 69.5625 19.55C70.1345 19.55 70.7152 19.5933 71.3045 19.68C71.8938 19.7667 72.4052 19.9053 72.8385 20.096V19.368C72.8385 18.5013 72.5785 17.834 72.0585 17.366C71.5558 16.898 70.8018 16.664 69.7965 16.664C69.0512 16.664 68.3405 16.794 67.6645 17.054C66.9885 17.314 66.2778 17.6953 65.5325 18.198L64.4145 15.91C65.3158 15.3207 66.2345 14.8787 67.1705 14.584C68.1238 14.2893 69.1205 14.142 70.1605 14.142C72.1018 14.142 73.6098 14.6273 74.6845 15.598C75.7765 16.5687 76.3225 17.9553 76.3225 19.758V24.1C76.3225 24.464 76.3832 24.724 76.5045 24.88C76.6432 25.036 76.8598 25.1313 77.1545 25.166V28C76.8425 28.052 76.5565 28.0953 76.2965 28.13C76.0538 28.1647 75.8458 28.182 75.6725 28.182C74.9792 28.182 74.4505 28.026 74.0865 27.714C73.7398 27.402 73.5232 27.0207 73.4365 26.57L73.3585 25.868C72.7692 26.6307 72.0325 27.22 71.1485 27.636C70.2645 28.052 69.3632 28.26 68.4445 28.26C67.5432 28.26 66.7285 28.078 66.0005 27.714C65.2898 27.3327 64.7265 26.8213 64.3105 26.18C63.9118 25.5213 63.7125 24.7847 63.7125 23.97ZM72.1885 24.672C72.3792 24.464 72.5352 24.256 72.6565 24.048C72.7778 23.84 72.8385 23.6493 72.8385 23.476V22.098C72.4225 21.9247 71.9718 21.7947 71.4865 21.708C71.0012 21.604 70.5418 21.552 70.1085 21.552C69.2072 21.552 68.4618 21.7513 67.8725 22.15C67.3005 22.5313 67.0145 23.0427 67.0145 23.684C67.0145 24.0307 67.1098 24.36 67.3005 24.672C67.4912 24.984 67.7685 25.2353 68.1325 25.426C68.4965 25.6167 68.9298 25.712 69.4325 25.712C69.9525 25.712 70.4638 25.6167 70.9665 25.426C71.4692 25.218 71.8765 24.9667 72.1885 24.672ZM82.7618 28L77.7438 14.376H81.3578L84.7898 24.828L88.2478 14.376H91.5498L86.5578 28H82.7618ZM99.2517 28.26C98.1597 28.26 97.1717 28.078 96.2877 27.714C95.4037 27.3327 94.6497 26.8213 94.0257 26.18C93.4017 25.5213 92.9163 24.776 92.5697 23.944C92.2403 23.0947 92.0757 22.202 92.0757 21.266C92.0757 19.966 92.3617 18.7787 92.9337 17.704C93.523 16.6293 94.355 15.7713 95.4297 15.13C96.5217 14.4713 97.8043 14.142 99.2777 14.142C100.768 14.142 102.042 14.4713 103.1 15.13C104.157 15.7713 104.963 16.6293 105.518 17.704C106.09 18.7613 106.376 19.9053 106.376 21.136C106.376 21.344 106.367 21.5607 106.35 21.786C106.332 21.994 106.315 22.1673 106.298 22.306H95.7677C95.837 22.9993 96.0363 23.606 96.3657 24.126C96.7123 24.646 97.1457 25.0447 97.6657 25.322C98.203 25.582 98.775 25.712 99.3817 25.712C100.075 25.712 100.725 25.5473 101.332 25.218C101.956 24.8713 102.38 24.4207 102.606 23.866L105.596 24.698C105.266 25.3913 104.79 26.0067 104.166 26.544C103.559 27.0813 102.84 27.506 102.008 27.818C101.176 28.1127 100.257 28.26 99.2517 28.26ZM95.6897 20.096H102.814C102.744 19.4027 102.545 18.8047 102.216 18.302C101.904 17.782 101.488 17.3833 100.968 17.106C100.448 16.8113 99.867 16.664 99.2257 16.664C98.6017 16.664 98.0297 16.8113 97.5097 17.106C97.007 17.3833 96.591 17.782 96.2617 18.302C95.9497 18.8047 95.759 19.4027 95.6897 20.096ZM108.368 22.904V14.376H111.852V22.15C111.852 23.19 112.043 23.9787 112.424 24.516C112.805 25.036 113.369 25.296 114.114 25.296C114.565 25.296 115.007 25.2093 115.44 25.036C115.891 24.8453 116.298 24.568 116.662 24.204C117.043 23.84 117.364 23.3807 117.624 22.826V14.376H121.108V24.1C121.108 24.464 121.169 24.724 121.29 24.88C121.429 25.036 121.645 25.1313 121.94 25.166V28C121.593 28.052 121.299 28.0867 121.056 28.104C120.831 28.1387 120.623 28.156 120.432 28.156C119.808 28.156 119.297 28.0173 118.898 27.74C118.517 27.4453 118.291 27.0467 118.222 26.544L118.144 25.452C117.537 26.3707 116.757 27.0727 115.804 27.558C114.851 28.026 113.802 28.26 112.658 28.26C111.254 28.26 110.188 27.8093 109.46 26.908C108.732 25.9893 108.368 24.6547 108.368 22.904ZM145.734 28H142.25V20.356C142.25 19.2813 142.06 18.4927 141.678 17.99C141.314 17.47 140.803 17.21 140.144 17.21C139.468 17.21 138.818 17.4787 138.194 18.016C137.588 18.536 137.154 19.2207 136.894 20.07V28H133.41V20.356C133.41 19.264 133.22 18.4667 132.838 17.964C132.474 17.4613 131.963 17.21 131.304 17.21C130.628 17.21 129.978 17.47 129.354 17.99C128.748 18.51 128.314 19.1947 128.054 20.044V28H124.57V14.376H127.716V16.898C128.236 16.014 128.93 15.338 129.796 14.87C130.663 14.3847 131.66 14.142 132.786 14.142C133.913 14.142 134.788 14.4193 135.412 14.974C136.054 15.5287 136.461 16.2133 136.634 17.028C137.189 16.092 137.891 15.3813 138.74 14.896C139.607 14.3933 140.578 14.142 141.652 14.142C142.502 14.142 143.186 14.298 143.706 14.61C144.244 14.9047 144.66 15.312 144.954 15.832C145.249 16.3347 145.448 16.9067 145.552 17.548C145.674 18.1893 145.734 18.8393 145.734 19.498V28Z" fill="#111928"/>
<path d="M0 16.4464C0 2.90279 2.90279 0 16.4464 0H21.5536C35.0972 0 38 2.90279 38 16.4464V21.5536C38 35.0972 35.0972 38 21.5536 38H16.4464C2.90279 38 0 35.0972 0 21.5536V16.4464Z" fill="#023AAF"/>
<path d="M30.58 28.1029C30.58 28.0105 30.5051 27.9356 30.4127 27.9356H7.58674C7.49434 27.9356 7.41943 28.0105 7.41943 28.1029V28.9264C7.41943 29.0188 7.49434 29.0937 7.58674 29.0937H8.56281C8.65521 29.0937 8.73012 29.1686 8.73012 29.261V29.451C8.73012 29.5434 8.80503 29.6183 8.89743 29.6183H29.1026C29.195 29.6183 29.2699 29.5434 29.2699 29.451V29.261C29.2699 29.1686 29.3448 29.0937 29.4372 29.0937H30.4127C30.5051 29.0937 30.58 29.0188 30.58 28.9264V28.1029Z" fill="white"/>
<path d="M10.1805 25.3835C10.0125 25.3835 9.87625 25.2473 9.87625 25.0792L9.87625 19.6504C9.87625 19.4824 10.0125 19.3462 10.1805 19.3462H10.8316L10.8316 25.3835H10.1805Z" fill="white"/>
<path d="M10.426 25.3835L10.426 19.3462H11.3814L11.3814 25.3835H10.426Z" fill="white"/>
<path d="M10.9758 25.3835L10.9758 19.3462H11.627C11.795 19.3462 11.9312 19.4824 11.9312 19.6504L11.9312 25.0792C11.9312 25.2473 11.795 25.3835 11.627 25.3835H10.9758Z" fill="white"/>
<path d="M8.66143 17.7145C8.66143 17.6473 8.71592 17.5928 8.78313 17.5928H13.0243C13.0915 17.5928 13.146 17.6473 13.146 17.7145V17.9798C13.146 18.047 13.0915 18.1015 13.0243 18.1015H8.78313C8.71592 18.1015 8.66143 18.047 8.66143 17.9798V17.7145Z" fill="white"/>
<path d="M9.09035 17.661C8.9567 17.661 8.87077 17.8029 8.93267 17.9213L9.38308 18.7833C9.41876 18.8515 9.48942 18.8943 9.56646 18.8943H12.2411C12.3182 18.8943 12.3888 18.8515 12.4245 18.7833L12.8749 17.9213C12.9368 17.8029 12.8509 17.661 12.7172 17.661H9.09035Z" fill="white"/>
<path d="M13.1462 27.0424C13.1462 27.1096 13.0917 27.1641 13.0245 27.1641H8.78328C8.71607 27.1641 8.66158 27.1096 8.66158 27.0424V26.7771C8.66158 26.7099 8.71607 26.6554 8.78328 26.6554L13.0245 26.6554C13.0917 26.6554 13.1462 26.7099 13.1462 26.7771V27.0424Z" fill="white"/>
<path d="M9.09071 27.0958H12.6697C12.8251 27.0958 12.9251 26.9308 12.8531 26.7931L12.4248 25.9735C12.3892 25.9053 12.3185 25.8625 12.2415 25.8625H9.56625C9.48922 25.8625 9.41856 25.9053 9.38288 25.9735L8.86641 26.9619C8.83457 27.0228 8.87877 27.0958 8.94752 27.0958H9.09071Z" fill="white"/>
<path d="M15.578 25.3835C15.4099 25.3835 15.2737 25.2473 15.2737 25.0793V19.6504C15.2737 19.4824 15.4099 19.3462 15.5779 19.3462H16.2291V25.3835H15.578Z" fill="white"/>
<path d="M15.8235 25.3835V19.3462H16.7789V25.3835H15.8235Z" fill="white"/>
<path d="M16.3733 25.3835L16.3733 19.3462H17.0244C17.1925 19.3462 17.3287 19.4824 17.3287 19.6504L17.3287 25.0793C17.3287 25.2473 17.1925 25.3835 17.0244 25.3835H16.3733Z" fill="white"/>
<path d="M14.0589 17.7145C14.0589 17.6473 14.1134 17.5928 14.1806 17.5928H18.4218C18.489 17.5928 18.5435 17.6473 18.5435 17.7145V17.9798C18.5435 18.047 18.489 18.1015 18.4218 18.1015H14.1806C14.1134 18.1015 14.0589 18.047 14.0589 17.9798V17.7145Z" fill="white"/>
<path d="M14.4879 17.661C14.3542 17.661 14.2683 17.8029 14.3302 17.9213L14.7806 18.7833C14.8163 18.8515 14.887 18.8943 14.964 18.8943H17.6387C17.7157 18.8943 17.7863 18.8515 17.822 18.7833L18.2724 17.9213C18.3343 17.8029 18.2484 17.661 18.1148 17.661H14.4879Z" fill="white"/>
<path d="M18.5436 27.0424C18.5436 27.1096 18.4892 27.1641 18.4219 27.1641H14.1808C14.1135 27.1641 14.0591 27.1096 14.0591 27.0424V26.7771C14.0591 26.7099 14.1135 26.6554 14.1808 26.6554H18.4219C18.4892 26.6554 18.5436 26.7099 18.5436 26.7771V27.0424Z" fill="white"/>
<path d="M14.4882 27.0958H18.0672C18.2226 27.0958 18.3226 26.9308 18.2506 26.7931L17.8223 25.9736C17.7867 25.9053 17.716 25.8625 17.639 25.8625H14.9637C14.8867 25.8625 14.816 25.9053 14.7804 25.9736L14.2639 26.9619C14.2321 27.0228 14.2763 27.0958 14.345 27.0958H14.4882Z" fill="white"/>
<path d="M20.9754 25.3835C20.8074 25.3835 20.6712 25.2473 20.6712 25.0793V19.6504C20.6712 19.4824 20.8074 19.3462 20.9754 19.3462H21.6266V25.3835H20.9754Z" fill="white"/>
<path d="M21.221 25.3835V19.3462H22.1764V25.3835H21.221Z" fill="white"/>
<path d="M21.7707 25.3835L21.7707 19.3462H22.4219C22.5899 19.3462 22.7261 19.4824 22.7261 19.6504L22.7261 25.0793C22.7261 25.2473 22.5899 25.3835 22.4219 25.3835H21.7707Z" fill="white"/>
<path d="M19.4564 17.7145C19.4564 17.6473 19.5108 17.5928 19.5781 17.5928H23.8192C23.8864 17.5928 23.9409 17.6473 23.9409 17.7145V17.9798C23.9409 18.047 23.8864 18.1015 23.8192 18.1015H19.5781C19.5108 18.1015 19.4564 18.047 19.4564 17.9798V17.7145Z" fill="white"/>
<path d="M19.8853 17.661C19.7517 17.661 19.6658 17.8029 19.7277 17.9213L20.1781 18.7833C20.2138 18.8515 20.2844 18.8943 20.3615 18.8943H23.0361C23.1131 18.8943 23.1838 18.8515 23.2195 18.7833L23.6699 17.9213C23.7318 17.8029 23.6459 17.661 23.5122 17.661H19.8853Z" fill="white"/>
<path d="M23.9411 27.0424C23.9411 27.1096 23.8866 27.1641 23.8194 27.1641H19.5782C19.511 27.1641 19.4565 27.1096 19.4565 27.0424V26.7771C19.4565 26.7099 19.511 26.6554 19.5782 26.6554H23.8194C23.8866 26.6554 23.9411 26.7099 23.9411 26.7771V27.0424Z" fill="white"/>
<path d="M19.8857 27.0958H23.4647C23.6201 27.0958 23.72 26.9308 23.648 26.7931L23.2198 25.9736C23.1841 25.9053 23.1135 25.8625 23.0364 25.8625H20.3612C20.2842 25.8625 20.2135 25.9053 20.1778 25.9736L19.6614 26.9619C19.6295 27.0228 19.6737 27.0958 19.7425 27.0958H19.8857Z" fill="white"/>
<path d="M26.3729 25.3835C26.2048 25.3835 26.0686 25.2473 26.0686 25.0793L26.0686 19.6504C26.0686 19.4824 26.2048 19.3462 26.3729 19.3462H27.024L27.024 25.3835H26.3729Z" fill="white"/>
<path d="M26.6184 25.3835L26.6184 19.3462H27.5738L27.5738 25.3835H26.6184Z" fill="white"/>
<path d="M27.1682 25.3835V19.3462H27.8194C27.9874 19.3462 28.1236 19.4824 28.1236 19.6504V25.0793C28.1236 25.2473 27.9874 25.3835 27.8194 25.3835H27.1682Z" fill="white"/>
<path d="M24.8538 17.7145C24.8538 17.6473 24.9083 17.5928 24.9755 17.5928H29.2167C29.2839 17.5928 29.3384 17.6473 29.3384 17.7145V17.9798C29.3384 18.047 29.2839 18.1015 29.2167 18.1015H24.9755C24.9083 18.1015 24.8538 18.047 24.8538 17.9798V17.7145Z" fill="white"/>
<path d="M25.2827 17.661C25.1491 17.661 25.0631 17.8029 25.125 17.9213L25.5754 18.7833C25.6111 18.8515 25.6818 18.8943 25.7588 18.8943H28.4335C28.5105 18.8943 28.5812 18.8515 28.6168 18.7833L29.0673 17.9213C29.1292 17.8029 29.0432 17.661 28.9096 17.661H25.2827Z" fill="white"/>
<path d="M29.3385 27.0424C29.3385 27.1096 29.284 27.1641 29.2168 27.1641H24.9756C24.9084 27.1641 24.8539 27.1096 24.8539 27.0424V26.7771C24.8539 26.7099 24.9084 26.6554 24.9756 26.6554H29.2168C29.284 26.6554 29.3385 26.7099 29.3385 26.7771V27.0424Z" fill="white"/>
<path d="M25.283 27.0958H28.8621C29.0175 27.0958 29.1174 26.9308 29.0454 26.7931L28.6172 25.9736C28.5815 25.9053 28.5109 25.8625 28.4338 25.8625H25.7586C25.6816 25.8625 25.6109 25.9053 25.5752 25.9736L25.0588 26.9619C25.0269 27.0228 25.0711 27.0958 25.1399 27.0958H25.283Z" fill="white"/>
<path d="M18.801 8.42758C18.9266 8.36655 19.0733 8.36655 19.1989 8.42758L30.4262 13.8825C30.8608 14.0936 30.7105 14.7472 30.2272 14.7472H7.77271C7.28948 14.7472 7.13911 14.0936 7.57375 13.8825L18.801 8.42758Z" fill="white"/>
<path d="M8.52555 16.0065C8.52555 15.8258 8.67205 15.6793 8.85277 15.6793H29.147C29.3277 15.6793 29.4742 15.8258 29.4742 16.0065V16.3337C29.4742 16.5144 29.3277 16.6609 29.147 16.6609H8.85277C8.67205 16.6609 8.52555 16.5144 8.52555 16.3337V16.0065Z" fill="white"/>
</svg>
