<svg width="20" height="20" viewBox="0 0 20 20" fill="none" xmlns="http://www.w3.org/2000/svg">
<path d="M14 9C14 12.1111 10 14.7778 10 14.7778C10 14.7778 6 12.1111 6 9C6 7.93913 6.42143 6.92172 7.17157 6.17157C7.92172 5.42143 8.93913 5 10 5C11.0609 5 12.0783 5.42143 12.8284 6.17157C13.5786 6.92172 14 7.93913 14 9Z" stroke="#111928" stroke-linecap="round" stroke-linejoin="round"/>
<path d="M10 10C10.5523 10 11 9.55228 11 9C11 8.44772 10.5523 8 10 8C9.44772 8 9 8.44772 9 9C9 9.55228 9.44772 10 10 10Z" fill="#111928" stroke="#111928" stroke-width="0.2" stroke-linecap="round" stroke-linejoin="round"/>
</svg>
